<svg width="437" height="80" viewBox="0 0 437 80" fill="none" xmlns="http://www.w3.org/2000/svg">
<path d="M165.938 36.0025C165.715 35.1064 165.462 34.2275 165.174 33.3785C163.901 29.627 161.774 26.6429 158.786 24.4177C155.798 22.1925 151.763 21.082 146.678 21.082C142.103 21.082 137.97 22.1325 134.283 24.229C130.596 26.3256 127.672 29.2325 125.511 32.9541C123.35 36.6713 122.27 41.0102 122.27 45.9666C122.27 50.9229 123.333 55.0732 125.464 58.7904C127.595 62.5077 130.454 65.4146 134.043 67.5155C137.632 69.612 141.589 70.6625 145.915 70.6625C149.855 70.6625 153.174 69.8821 155.879 68.3258C158.58 66.7694 160.741 64.75 162.362 62.2719C163.982 59.7937 165.174 57.1097 165.938 54.2157L165.929 69.7148H176.605L176.609 22.5492H165.929L165.933 36.0068L165.938 36.0025ZM163.982 54.16C162.679 56.5781 160.771 58.4646 158.263 59.8323C155.75 61.2 152.715 61.8817 149.156 61.8817C146.039 61.8817 143.278 61.2129 140.86 59.8795C138.442 58.5461 136.555 56.6724 135.188 54.2543C133.82 51.8404 133.138 49.075 133.138 45.958C133.138 41.1903 134.536 37.3144 137.331 34.3261C140.127 31.3377 144.067 29.8456 149.152 29.8456C152.711 29.8456 155.729 30.4973 158.207 31.8007C160.685 33.1041 162.593 34.9478 163.927 37.3316C165.26 39.7154 165.929 42.5923 165.929 45.9623C165.929 49.015 165.277 51.7461 163.974 54.16H163.982Z" fill="#040822"/>
<path d="M237.43 6.30696C234.793 7.45171 232.791 9.41538 231.423 11.8292C230.056 14.2474 229.374 16.9313 229.374 20.7429V22.5683H205.729V21.9348C205.729 19.7096 206.093 18.0118 206.826 16.8327C207.555 15.658 208.588 15.0148 209.926 14.5389C211.259 14.063 212.786 13.8912 214.501 13.9513H220.508V4.5791H212.593C208.97 4.5791 205.84 5.14934 203.203 6.29409C200.566 7.43885 198.564 9.21816 197.197 11.632C195.829 14.0501 195.147 17.1629 195.147 20.9744V22.5597H185.805V31.2687H195.147V69.6885H205.729V31.2687H229.374V69.6885H239.956V31.2687H254.64V22.5597H239.956V21.6862C239.956 19.4609 240.32 18.1747 241.053 16.9656C241.782 15.7609 242.815 14.9334 244.153 14.4875C245.486 14.0416 247.013 13.8529 248.728 13.9172H254.64V4.5791H246.918C243.231 4.5791 240.067 5.14934 237.43 6.29409V6.30696Z" fill="#040822"/>
<path d="M274.519 4.5752H263.844V13.9624H274.519V4.5752Z" fill="#040822"/>
<path d="M274.516 22.5459H263.836V69.6881H274.516V22.5459Z" fill="#040822"/>
<path d="M327.91 25.7317C326.225 24.1753 324.223 23.0134 321.903 22.2502C319.584 21.4871 317.054 21.1055 314.323 21.1055C311.399 21.1055 308.728 21.5814 306.314 22.5375C303.896 23.4893 301.799 24.8099 300.02 26.4948C298.241 28.1798 296.809 30.0877 295.728 32.2143C295.137 33.3848 294.661 34.5853 294.296 35.8201V22.5375H283.715V69.7148H294.296V41.3681C294.768 39.9189 295.497 38.5555 296.487 37.265C298.074 35.1984 300.123 33.5134 302.635 32.2101C305.144 30.9067 307.926 30.255 310.979 30.255C314.983 30.255 317.92 31.1939 319.798 33.0675C321.672 34.9412 322.611 37.8181 322.611 41.6982V69.7148H333.192V39.5974C333.192 36.4847 332.729 33.7836 331.812 31.494C330.89 29.2045 329.587 27.2837 327.902 25.7274L327.91 25.7317Z" fill="#040822"/>
<path d="M353.045 4.58203H342.383V13.9245H353.045V4.58203Z" fill="#040822"/>
<path d="M353.067 22.5527H342.387V69.715H353.067V22.5527Z" fill="#040822"/>
<path d="M405.926 36.0989C405.193 33.1877 404.048 30.6238 402.492 28.4115C400.901 26.1562 398.74 24.3769 396.009 23.0735C393.273 21.7702 389.908 21.1185 385.903 21.1185C381.329 21.1185 377.277 22.1689 373.748 24.2655C370.22 26.362 367.424 29.269 365.358 32.9905C363.291 36.7077 362.258 41.0467 362.258 46.003C362.258 50.9593 363.308 55.1096 365.405 58.8269C367.501 62.5441 370.348 65.451 373.937 67.5519C377.526 69.6485 381.517 70.6989 385.903 70.6989C389.843 70.6989 393.166 69.9186 395.867 68.3622C398.569 66.8059 400.729 64.7865 402.35 62.3083C403.971 59.8301 405.163 57.1462 405.926 54.2521V58.3981V69.7149H416.606V4.58203H405.926V36.0989ZM403.971 54.2007C402.667 56.6188 400.759 58.5053 398.251 59.873C395.739 61.2407 392.703 61.9224 389.145 61.9224C386.028 61.9224 383.266 61.2536 380.848 59.9202C378.43 58.5868 376.544 56.7131 375.176 54.295C373.808 51.8811 373.127 49.1157 373.127 45.9987C373.127 41.231 374.524 37.338 377.32 34.3196C380.115 31.3012 384.055 29.792 389.14 29.792C392.699 29.792 395.717 30.4609 398.2 31.7943C400.678 33.1277 402.586 34.9885 403.919 37.3723C405.253 39.7561 405.922 42.633 405.922 46.003C405.922 49.0557 405.27 51.7868 403.966 54.2007H403.971Z" fill="#040822"/>
<path d="M436.497 4.54883H425.805V13.9846H436.497V4.54883Z" fill="#040822"/>
<path d="M436.481 22.5527H425.801V69.7117H436.481V22.5527Z" fill="#040822"/>
<path d="M11.0668 67.6045C18.3512 75.2405 28.6283 79.9996 40.0116 79.9996C51.3948 79.9996 61.6719 75.2405 68.9564 67.6045H11.0625H11.0668Z" fill="#040822"/>
<path d="M68.9614 22.5361H4.02317C2.1624 26.3649 0.89331 30.5366 0.335938 34.9312H68.9614V22.5361Z" fill="#040822"/>
<path d="M68.9599 12.3951C61.6755 4.75911 51.3984 0 40.0151 0C28.6318 0 18.3547 4.75911 11.0703 12.3951H68.9599Z" fill="#040822"/>
<path d="M68.9614 45.0684H0.335938C0.89331 49.463 2.1624 53.6348 4.02317 57.4635H68.9614V45.0684Z" fill="#040822"/>
<path d="M76.0117 22.5361C77.8725 26.3649 79.1416 30.5366 79.6989 34.9312H95.6312V22.5361H76.0117Z" fill="#040822"/>
<path d="M95.6291 67.6045H68.9609V79.9996H95.6291V67.6045Z" fill="#040822"/>
<path d="M76.0117 57.4635H95.6312V45.0684H79.6989C79.1416 49.463 77.8725 53.6348 76.0117 57.4635Z" fill="#040822"/>
<path d="M95.6291 0H68.9609V12.3951H95.6291V0Z" fill="#040822"/>
<path d="M79.6968 34.9286C79.1394 30.5339 77.8703 26.3622 76.0096 22.5334C74.1917 18.7905 71.8035 15.3734 68.9609 12.3936V67.6035C71.8035 64.6237 74.1874 61.2065 76.0096 57.4636C77.8703 53.6348 79.1394 49.4631 79.6968 45.0685C79.9069 43.4092 80.0141 41.7156 80.0141 39.9964C80.0141 38.2771 79.9069 36.5878 79.6968 34.9243V34.9286Z" fill="#1D58FC"/>
</svg>
